<?xml version="1.0" encoding="utf-8"?>
<!-- Generator: Adobe Illustrator 19.1.0, SVG Export Plug-In . SVG Version: 6.00 Build 0)  -->
<svg version="1.1" id="Layer_1" xmlns="http://www.w3.org/2000/svg" xmlns:xlink="http://www.w3.org/1999/xlink" x="0px" y="0px"
	 width="224px" height="223.1px" viewBox="54.2 172 224 223.1" style="enable-background:new 54.2 172 224 223.1;"
	 xml:space="preserve">
<style type="text/css">
	.st0{fill:#FEFACB;}
	.st1{fill:#E0DBB3;}
	.st2{fill:#D1E292;}
	.st3{fill:#EEED90;}
	.st4{fill:#6C4E12;}
	.st5{fill:#C5C67A;}
	.st6{fill:#5A862A;}
	.st7{fill:#7E5B1C;}
</style>
<rect x="54.2" y="172" class="st0" width="224" height="223.1"/>
<path class="st1" d="M261.9,259.4c3.3,2.6,6.6,5.2,9.9,7.7c2,1.5,4,3,6,4.6c0.1,0.1,0.2,0.1,0.3,0.1c0,40.9,0,81.9,0,122.8
	c-30.1,0-60.3,0-90.4,0c-1.8,0-3.1-0.5-4.4-1.6c-2.6-2.1-5.4-4.2-8-6.3c-3.5-2.7-6.9-5.4-10.4-8c-2.8-2.1-5.6-4.3-8.4-6.4
	c-2.8-2.2-5.6-4.4-8.4-6.6c-0.8-0.6-1.7-1.3-2.5-1.9c-0.2-0.2-0.6-0.3-0.6-0.7c0.9,0.5,1.8,0.9,2.7,1.4c6.4,3.1,13.1,4.5,20.2,4.2
	c5.9-0.2,11.6-1.7,16.9-4.2c5.8-2.8,10.8-6.8,15.1-11.7c5.5-6.3,9.4-13.4,11.9-21.3c2.5-8.1,3.4-16.4,2.7-24.9
	c-0.6-7.4-2.3-14.6-5.5-21.4c-0.6-1.4-1.5-2.7-2-4.2c-1.2-3.6-2.8-7.2-4.3-10.7c-2.3-5.2-3.8-10.6-5-16.1c-0.8-3.4-1.2-6.9-1.5-10.3
	c-0.2-2.5-0.5-5-0.3-7.5c0.2-3.7,0.6-7.4,0.3-11.1c-0.5-7-4-11.9-10-15.1c-0.7-0.4-1.4-0.7-1.2-1.7c0-0.2-0.1-0.4-0.2-0.7
	c-0.5-1.5-1.7-2.3-3.2-2.5c-0.6-0.1-0.7-0.4-0.6-0.9c0.2-0.7,0.3-1.4,0.4-2.1c0.2-1.5,0.9-3,0.2-4.6c0.4,0,0.7,0.3,1,0.5
	c4.4,3.4,8.9,6.8,13.3,10.3c3.7,2.9,7.4,5.7,11.1,8.6c3.2,2.5,6.4,5,9.6,7.5c3,2.3,6,4.7,9,6.9c1.8,1.4,3.6,2.8,5.4,4.2
	c1.7,1.3,3.5,2.6,5.2,3.9c1.2,0.9,2.4,1.9,3.6,2.9c1.7,1.3,3.5,2.6,5.3,4c2,1.6,4,3.1,6,4.7L261.9,259.4z"/>
<path class="st2" d="M136.8,249c0.1-0.3,0.2-0.5,0.3-0.8 M134.8,254.4c0.3-1.2,0.8-2.2,1.2-3.3c0.1,0.2,0.3,0.1,0.4,0 M138.5,245
	c0.5-1.8,1.3-3.4,2-5.1c1.8-4.3,3.5-8.7,5.7-12.8c2.4-4.6,5-9,8.9-12.6c3.5-3.3,7.7-5.3,12.5-5.6c7-0.5,13.4,1.3,19.3,5.1
	c4.1,2.6,6.1,6.5,6.5,11.4c0.3,3.8-0.1,7.6-0.3,11.4c-0.1,2.7,0.2,5.4,0.4,8.1c0.1,0.8,0.2,1.5,0.3,2.3l2.9,14.5
	c1.1,4,2.6,7.8,4.2,11.5c1.3,3,2.5,6,3.6,9.1c0.7,1.8,1.7,3.5,2.5,5.3c2,4.6,3.3,9.4,4.1,14.4c0.7,4.2,0.9,8.3,0.7,12.5
	c-0.2,6.8-1.6,13.4-4,19.8c-2.5,6.5-6,12.4-10.7,17.5c-4.3,4.7-9.2,8.4-15,10.9c-5.4,2.4-11,3.5-16.9,3.3
	c-8.3-0.2-15.8-2.9-22.5-7.7c-7.9-5.6-13.4-13.1-17.3-22c-2.7-6.2-4.2-12.6-4.7-19.3c-0.4-5.3,0-10.5,0.6-15.8
	c0.4-3.2,0.7-6.3,1.4-9.4c1.1-5.1,2.5-10.1,4.1-15c2.1-6.8,4.4-13.5,6.9-20.1c0.1-0.1,0.1-0.1,0.2-0.2c0,0,0,0,0,0 M142.8,248.9
	c-0.8,2.5-2,4.9-2.9,7.4c-0.7,1.9-1.5,3.7-2.1,5.7c-0.8,2.4-1.8,4.7-2.5,7.2c-0.6,2.2-1.5,4.4-2.2,6.6c-0.6,2.1-1.3,4.2-1.9,6.3
	c-0.5,1.8-1.1,3.5-1.6,5.3c-0.9,3.4-1.6,6.8-2.3,10.3c-0.3,1.4-0.1,2.9-0.4,4.3c-0.5,3.1-0.9,6.2-0.9,9.3c0,3.2,0.2,6.4,0.7,9.7
	c0.2,1.4,0.5,2.9,0.8,4.3c0.3,1.5,0.7,2.9,1.1,4.4c1,3.2,2.3,6.2,4,9.2c0.9,1.7,1.9,3.4,3,4.9c2.2,3.1,4.7,5.9,7.7,8.4
	c2.2,1.9,4.6,3.5,7.1,4.8c3.1,1.6,6.5,2.7,10,3.3c3.3,0.6,6.6,0.7,9.8,0.2c4.1-0.5,8.1-1.7,11.7-3.7c4.3-2.4,8.2-5.4,11.4-9.1
	c1.2-1.4,2.4-2.9,3.5-4.5c1.5-2.2,2.9-4.5,4-6.9c0.9-1.9,1.6-3.8,2.3-5.8c0.6-1.7,1.1-3.5,1.5-5.3c0.4-1.8,0.7-3.7,1-5.6
	c0.3-2.4,0.4-4.8,0.4-7.3 M204.2,296.2c-0.8-3-2-5.8-3.2-8.6c-0.7-1.4-1.5-2.8-2-4.3c-0.9-2.7-2-5.3-3.1-7.9
	c-0.8-1.9-1.6-3.8-2.3-5.7c-0.6-1.7-1.2-3.5-1.7-5.2c-1.1-3.4-1.7-6.8-2.5-10.2c-0.4-1.9-0.7-3.9-0.9-5.8c-0.4-2.7-0.6-5.4-0.8-8.2
	c-0.3-4.4,0.5-8.7,0.3-13.1c0-1.3-0.2-2.5-0.5-3.8c-0.5-2.1-1.9-3.6-3.5-4.8c-1.8-1.3-3.7-2.1-5.8-2.8c-3.3-1.1-6.7-1.8-10.2-1.4
	c-1.7,0.2-3.4,0.6-5,1.4c-3.4,1.7-6,4.5-8.1,7.6c-2.2,3.3-4,6.9-5.6,10.5c-1,2.2-1.9,4.4-2.8,6.6"/>
<path class="st3" d="M146.3,240.5c0.9-2.2,1.9-4.4,2.8-6.6c1.6-3.6,3.4-7.2,5.6-10.5c2.1-3.1,4.7-5.8,8.1-7.6c1.5-0.8,3.3-1.2,5-1.4
	c3.5-0.5,6.9,0.3,10.2,1.4c2.1,0.7,4.1,1.5,5.8,2.8c1.6,1.2,3,2.7,3.5,4.8c0.3,1.3,0.4,2.5,0.5,3.8c0.2,4.4-0.6,8.8-0.3,13.1
	c0.2,2.7,0.4,5.5,0.8,8.2c0.3,1.9,0.5,3.9,0.9,5.8c0.7,3.4,1.4,6.8,2.5,10.2c0.5,1.7,1.1,3.5,1.7,5.2c0.7,1.9,1.5,3.8,2.3,5.7
	c1.1,2.6,2.3,5.2,3.1,7.9c0.5,1.5,1.4,2.9,2,4.3c1.3,2.8,2.5,5.6,3.2,8.6l2.1,15.9c0,2.4-0.1,4.8-0.4,7.3c-0.2,1.9-0.6,3.7-1,5.6
	c-0.4,1.8-0.9,3.6-1.5,5.3c-0.7,2-1.4,3.9-2.3,5.8c-1.1,2.4-2.5,4.7-4,6.9c-1.1,1.6-2.2,3-3.5,4.5c-3.2,3.8-7.1,6.8-11.4,9.1
	c-3.6,2-7.6,3.2-11.7,3.7c-3.3,0.4-6.5,0.3-9.8-0.2c-3.5-0.6-6.9-1.7-10-3.3c-2.5-1.3-4.9-2.9-7.1-4.8c-2.9-2.5-5.5-5.3-7.7-8.4
	c-1.1-1.6-2.1-3.2-3-4.9c-1.6-2.9-3-6-4-9.2c-0.4-1.4-0.8-2.9-1.1-4.4c-0.3-1.4-0.6-2.8-0.8-4.3c-0.5-3.2-0.7-6.4-0.7-9.7
	c0-3.1,0.2-6.3,0.6-9.3c0.2-1.4,0.3-2.8,0.6-4.3c0.6-3.5,1.3-6.9,2.3-10.3c0.5-1.8,1.1-3.5,1.6-5.3c0.6-2.1,1.3-4.2,1.9-6.3
	c0.7-2.2,1.6-4.3,2.2-6.6c0.7-2.4,1.7-4.8,2.5-7.2c0.6-1.9,1.4-3.8,2.1-5.7c0.9-2.5,1.9-4.9,2.9-7.4
	C143.6,246.8,145.5,242.6,146.3,240.5z"/>
<path class="st4" d="M141.1,308.7c0.1-3.9,0.7-7.7,1.8-11.4c1.7-6,4.5-11.3,8.9-15.7c3.8-3.7,8.3-6,13.7-6.1c4.4-0.1,8.3,1.4,11.7,4
	c0.4,0.3,0.7,0.6,1.1,0.8c0.2,0.2,0.4,0.4,0.6,0.6c2.4,2.2,4.4,4.7,6,7.5c3.3,5.7,4.9,11.9,5.4,18.4c0.5,6.8-0.3,13.5-2.7,20
	c-1.9,5.1-4.6,9.7-8.7,13.3c-4.2,3.7-8.9,5.7-14.6,5.2c-1.8-0.1-3.5-0.7-5.3-1.2c-2.5-1.2-4.8-2.6-6.9-4.5c-2-1.9-3.7-4.1-5.2-6.4
	c-2.8-4.5-4.7-9.4-5.3-14.6C141.5,316,141.1,310.7,141.1,308.7z"/>
<path class="st5" d="M159.1,344c1.7,0.5,3.4,1,5.3,1.2c5.7,0.4,10.4-1.6,14.6-5.2c4.1-3.6,6.8-8.2,8.7-13.3c2.4-6.5,3.2-13.2,2.7-20
	c-0.5-6.5-2.1-12.7-5.4-18.4c-1.6-2.8-3.6-5.4-6-7.5c-0.2-0.2-0.4-0.4-0.6-0.6c1,0.1,1.7,0.8,2.4,1.3c5.1,3.6,8.3,8.6,10.6,14.4
	c1.3,3.3,2.2,6.8,2.7,10.3c0.4,2.9,0.6,5.9,0.3,8.9c-0.1,0.8-0.3,1.6-0.1,2.5c0.1,0.5,0.2,0.9,0.4,1.3l0,0c-0.3-0.1-0.6-0.1-0.5,0.4
	c0.1,0.9-0.4,1.8-0.4,2.8c0,0.7-0.3,1.5-0.5,2.2c-0.6,1.8-1.1,3.7-1.8,5.4c-1.2,3-2.6,5.9-4.6,8.5c-1.4,1.9-3,3.8-4.9,5.2
	c-2.3,1.7-4.7,3.1-7.5,3.8c-1.7,0.4-3.4,0.7-5.1,0.6c-1-0.1-2.1-0.3-3.1-0.5c-1.1-0.2-2.2-0.5-3.3-0.9c-1.3-0.4-2.4-1.2-3.6-1.8
	C159.2,344.4,159.1,344.2,159.1,344z"/>
<path class="st6" d="M130.2,258.7c1.9-5.4,4-10.7,6.2-15.9c1.4-3.4,2.8-6.9,4.3-10.3c2.4-5.5,5-10.9,8.7-15.7
	c4.3-5.6,9.7-9.4,16.8-10.5c0.3-0.1,0.7-0.1,1-0.1c1-0.1,1.9-0.1,2.6-1.3c0.8-1.4,2.4-1.6,4-1.2c1.1,0.3,1.1,0.2,1.3-0.9
	c0.2-1.3,0.5-2.5,0.8-3.8c0.3-1.4,1-2.4,2.4-2.7c1.4-0.3,2.4,0.4,3.2,1.5c0.6,1.6,0,3.1-0.2,4.6c-0.1,0.7-0.3,1.4-0.4,2.1
	c-0.1,0.5,0,0.8,0.6,0.9c1.5,0.2,2.7,1,3.2,2.5c0.1,0.2,0.2,0.5,0.2,0.7c-0.2,1,0.5,1.3,1.2,1.7c6,3.2,9.5,8.1,10,15.1
	c0.3,3.7-0.1,7.4-0.3,11.1c-0.2,2.5,0.1,5,0.3,7.5c0.3,3.5,0.7,6.9,1.5,10.3c1.2,5.5,2.8,10.9,5,16.1c1.5,3.5,3,7.1,4.3,10.7
	c0.5,1.5,1.3,2.8,2,4.2c3.1,6.8,4.9,13.9,5.5,21.4c0.7,8.5-0.2,16.8-2.7,24.9c-2.5,7.9-6.4,15.1-11.9,21.3
	c-4.3,4.9-9.2,8.8-15.1,11.7c-5.3,2.6-10.9,4-16.9,4.2c-7.1,0.3-13.8-1.2-20.2-4.2c-0.9-0.4-1.8-0.9-2.7-1.4c-2.4-1.5-4.8-3.2-7-5.1
	c-5.7-4.9-10.2-10.8-13.5-17.5c-3.2-6.4-5.2-13.2-6.1-20.3c-0.8-6.3-0.7-12.6,0.3-18.9c0.4-2.2,0.3-4.4,0.8-6.6
	c0.9-4.8,2.1-9.6,3.5-14.3c1.3-4.6,2.8-9.1,4.3-13.6L130.2,258.7z M133.8,256.8c-2.5,6.6-4.7,13.3-6.9,20.1c-1.6,4.9-3,9.9-4.1,15
	c-0.7,3.1-1,6.3-1.4,9.4c-0.6,5.3-1,10.5-0.6,15.8c0.5,6.7,2,13.1,4.7,19.3c3.8,8.9,9.4,16.3,17.3,22c6.7,4.8,14.2,7.5,22.5,7.7
	c5.9,0.2,11.5-1,16.9-3.3c5.8-2.5,10.7-6.3,15-10.9c4.7-5.1,8.2-11,10.7-17.5c2.4-6.4,3.7-13,4-19.8c0.2-4.2-0.1-8.4-0.7-12.5
	c-0.8-5-2.1-9.8-4.1-14.4c-0.8-1.8-1.8-3.5-2.5-5.3c-1.1-3.1-2.3-6.1-3.6-9.1c-1.6-3.8-3.1-7.6-4.2-11.5c0-0.4-0.2-0.7-0.4-1
	c-0.1-1.3-0.6-2.5-0.9-3.7c-0.6-2.9-1.1-5.8-1.6-8.7c0.1-0.4,0.1-0.7-0.1-1.1c-0.1-0.8-0.2-1.5-0.3-2.3c-0.2-2.7-0.5-5.4-0.4-8.1
	c0.2-3.8,0.6-7.6,0.3-11.4c-0.3-4.8-2.4-8.7-6.5-11.4c-5.8-3.8-12.3-5.6-19.3-5.1c-4.8,0.4-9,2.4-12.5,5.6c-3.9,3.5-6.5,8-8.9,12.6
	c-2.2,4.2-3.9,8.5-5.7,12.8c-0.7,1.7-1.5,3.3-2,5.1l-4.6,11.6"/>
<path class="st7" d="M155.1,278.6c0,0-9.2,6.4-11,18c0,9.4,1.4,14.5,5.5,17.5c4.5,2,9.4,3.6,15.6-2c6.3-5.6,11.4-17.3,7.5-27.5
	c-3-7.9-8.5-8.5-12-8.1C159.3,276.8,156.4,277.6,155.1,278.6z"/>
</svg>
